<?xml version="1.0" encoding="utf-8"?>
<!-- Generator: Adobe Illustrator 19.2.1, SVG Export Plug-In . SVG Version: 6.00 Build 0)  -->
<svg version="1.1" id="layer" xmlns="http://www.w3.org/2000/svg" xmlns:xlink="http://www.w3.org/1999/xlink" x="0px" y="0px"
	 viewBox="0 0 652 652" style="enable-background:new 0 0 652 652;" xml:space="preserve">
<style type="text/css">
	.st0{fill:#13123A;}
	.st1{clip-path:url(#SVGID_2_);fill:#FFFFFF;}
	.st2{clip-path:url(#SVGID_2_);fill:#9AC330;}
</style>
<rect x="76" y="76.9" class="st0" width="500" height="500"/>
<g>
	<defs>
		<rect id="SVGID_1_" x="76" y="76.9" width="500" height="500"/>
	</defs>
	<clipPath id="SVGID_2_">
		<use xlink:href="#SVGID_1_"  style="overflow:visible;"/>
	</clipPath>
	<path class="st1" d="M148.5,236.6c2.9,0.1,6.5,0.2,9.9,0.2c3.3,0,6.6-0.1,9.9-0.2v2.1H167c-1.8,0-3.6,0.6-3.6,2.7
		c0,0.8,0.5,2,1,3.6l11.4,31.6h0.2l12.9-40.8h2.6l13.9,40.5h0.2l9.7-28.4c0.5-1.5,1.5-4.5,1.5-6.2c0-2.2-1.2-2.9-3.5-2.9h-1.8v-2.1
		c2.3,0.1,5.5,0.2,8.3,0.2c2.7,0,5.6-0.1,8.2-0.2v2.1h-1.4c-3,0-4.8,0.9-6.1,4.8l-15.3,43.9h-2.6l-13.9-40.6h-0.2l-13.1,40.6H173
		l-16.3-43.7c-1.5-4.1-3.8-5-6.6-5h-1.5V236.6z"/>
	<path class="st1" d="M252.5,235.7c15.2,0,28.5,11.3,28.5,25.8c0,12.3-10.4,25.8-28.7,25.8c-16.5,0-28.4-11.4-28.4-25.3
		C223.9,246.5,237.5,235.7,252.5,235.7 M252.3,238.7c-10.7,0-20.8,6-20.8,22.3c0,11.4,8.1,23.8,21.2,23.8c14.1,0,20.6-9.5,20.6-22.4
		C273.4,251,265.7,238.7,252.3,238.7"/>
	<path class="st1" d="M282.5,284.4h1.4c3.5,0,5-1.2,5-5.7v-34.2c0-4.6-1.5-5.7-5-5.7h-1.4v-2.1c2.7,0.1,6.3,0.2,9.8,0.2
		c5.1,0,8.8-0.2,12.2-0.2c13.5,0,16,9.7,16,12.9c0,9.2-7,12-10.9,13.1l10.2,15.5c4.2,6.3,5.4,6.7,11.6,7.1v1.5
		c-1.4,0-2.8,0.1-4.3,0.1c-6.7,0-9.9-0.8-13.9-6.9l-8.9-13.4c-1.8-2.6-2.8-2.7-8.6-2.9V277c0,6.6,1.3,7.4,4.4,7.4h2.2v2.1
		c-3.4-0.1-6.6-0.2-9.9-0.2c-3.4,0-7.1,0.1-9.8,0.2V284.4z M295.6,260.6c1.3,0.4,3.2,0.5,5.2,0.5c6.9,0,12.5-2.9,12.5-10.1
		c0-3.1-2.3-11.6-12.9-11.6c-1.8,0-3.3,0.1-4.8,0.3V260.6z"/>
	<path class="st1" d="M333.9,284.4h1.4c3.5,0,5-1.2,5-5.7v-34.2c0-4.6-1.5-5.7-5-5.7h-1.4v-2.1c2.7,0.1,6.3,0.2,9.8,0.2
		c3.4,0,6.6-0.1,10.1-0.2v2.1h-1.8c-3.5,0-5,1.2-5,5.7V277c0,5.2,1.2,7.1,10.6,7.1c12.5,0,14-2,15.4-10h2.4l-0.5,12.4
		c-6.7-0.1-15.4-0.2-22.1-0.2c-8.9,0-16.3,0.1-18.9,0.2V284.4z"/>
	<path class="st1" d="M378.4,284.4h1.4c3.5,0,5-1.2,5-5.7v-34.2c0-4.6-1.5-5.7-5-5.7h-1.4v-2.1c2.7,0.1,6.3,0.2,9.8,0.2
		c6.1,0,12.3-0.2,18.4-0.2c20.6,0,27.9,15.4,27.9,24.4c0,10.2-7.3,25.4-30.7,25.4c-4.7,0-10.2-0.2-15.6-0.2c-3.4,0-7.1,0.1-9.8,0.2
		V284.4z M391.5,277.4c0,5.5,2.4,6.4,11.1,6.4c13.4,0,24.5-5.3,24.5-20.9c0-10.2-7-23.9-25.9-23.9c-3.2,0-6.4,0.3-9.7,0.6V277.4z"/>
	<path class="st1" d="M164.2,348.2h1.8c4.1,0,4.9-0.9,4.9-6.7v-38.2h-8.7c-8.2,0-9.2,4.3-9.6,9.8h-2.6v-12.7
		c2.3,0.1,14.4,0.2,24.3,0.2c9.2,0,21.7-0.1,24.3-0.2v12.7h-2.6c-0.5-5.5-1.5-9.8-9.6-9.8h-8.7v38.2c0,5.7,0.8,6.7,4.9,6.7h1.8v2.1
		c-2.9-0.1-6.2-0.2-10-0.2c-3.8,0-7.1,0.1-10,0.2V348.2z"/>
	<path class="st1" d="M202.6,348.2h1.4c3.5,0,5-1.2,5-5.7v-34.2c0-4.6-1.5-5.7-5-5.7h-1.4v-2.1c2.7,0.1,6.3,0.2,9.8,0.2
		c5.1,0,8.8-0.2,12.2-0.2c13.5,0,16,9.7,16,12.9c0,9.2-7,12-10.9,13.1l10.2,15.5c4.2,6.3,5.4,5.9,11.6,6.3v1.5
		c-1.1,0.3-3.7,0.5-5.1,0.6c-5.6,0.4-9-0.6-13.1-6.6l-8.9-13.4c-1.8-2.6-2.8-2.7-8.6-2.9v13.2c0,6.6,1.3,7.4,4.4,7.4h2.2v2.1
		c-3.4-0.1-6.6-0.2-10-0.2c-3.4,0-7.1,0.1-9.8,0.2V348.2z M215.8,324.4c1.3,0.4,3.2,0.5,5.2,0.5c6.9,0,12.5-2.9,12.5-10.1
		c0-3.1-2.3-11.6-12.9-11.6c-1.8,0-3.3,0.1-4.8,0.3V324.4z"/>
	<path class="st1" d="M246.4,348.2h0.9c4.2,0,5.9-1.7,8.2-7.6l17.5-42.1h1.5l19.6,42.9c1.8,4.1,4.2,6.8,7.7,6.8h1.6v2.1
		c-2.9-0.1-6.4-0.2-10.4-0.2c-4,0-7.7,0.1-10.5,0.2v-2.1h1.9c2.4,0,3.9-0.8,3.9-2.2c0-1-0.8-2.9-1.1-3.5l-5.6-12.6h-17.8l-4,11.1
		c-0.5,1.4-1.3,3.5-1.3,5c0,1.3,0.8,2.2,3.1,2.2h1.7v2.1c-2.7-0.1-5.8-0.2-9.4-0.2c-2.9,0-5.7,0.1-7.6,0.2V348.2z M272,308
		l-7.1,19.2h15.6L272,308z"/>
	<path class="st1" d="M287.6,300.5c3.1,0.1,6.9,0.2,10.5,0.2c3.5,0,7.2-0.1,10.4-0.2v2.1h-1.1c-3.5,0-4.6,1.4-4.6,2.9
		c0,1.3,0.5,2.6,1.6,5.2l14.1,31.9l15-32.6c0.9-2,1.6-4,1.6-5.4c0-1.4-1.3-2-3-2h-1.4v-2.1c2.4,0.1,5.3,0.2,8.1,0.2
		c2.7,0,5.4-0.1,8.1-0.2v2.1h-1.4c-2.8,0-4.7,0.9-7.4,6.6l-19.8,42.1h-2.9l-19.5-43c-2-4.3-3.4-5.7-6.8-5.7h-1.5V300.5z"/>
	<path class="st1" d="M349.1,348.2h1.4c3.5,0,5-1.2,5-5.7v-34.2c0-4.6-1.5-5.7-5-5.7h-1.4v-2.1c2.4,0.1,11.2,0.2,18.8,0.2
		c9,0,12.6-0.1,18-0.2c0.2,4.3,0.3,8.1,0.7,11.9h-2.1c-0.8-4.9-1.3-9.2-14.8-9.2h-7.3V323h6.7c9.3,0,9.6-1.5,9.8-5.6h2.1
		c-0.1,1.6-0.2,3.8-0.2,6.9c0,2.7,0.1,5,0.2,6.4h-2.1c-0.4-3.5-0.5-5-9.1-5h-7.3v16.8c0,4.2,1.7,5.3,6.6,5.3h2.1
		c12.8,0,16.2-2.2,17.4-10h2.1c-0.5,4.3-1,8.4-1.5,12.7c-4.6-0.1-12.7-0.2-21-0.2c-9.5,0-16.3,0.1-18.8,0.2V348.2z"/>
	<path class="st1" d="M393.9,348.2h1.4c3.5,0,5-1.2,5-5.7v-34.2c0-4.6-1.5-5.7-5-5.7h-1.4v-2.1c2.7,0.1,6.3,0.2,9.8,0.2
		c3.4,0,6.6-0.1,10.2-0.2v2.1h-1.8c-3.5,0-5,1.2-5,5.7v32.5c0,5.2,1.2,7.1,10.6,7.1c12.5,0,14-2,15.4-10h2.4l-0.4,12.4
		c-6.7-0.1-15.4-0.2-22.1-0.2c-8.9,0-16.3,0.1-19,0.2V348.2z"/>
	<path class="st1" d="M479.2,323.7c2.1,0.1,3.8,0.2,6.8,0.2c4.8,0,7.3-0.1,9.3-0.2v2.1c-5.3,0-6,0.6-6.7,5.7
		c-0.2,1.7-1.3,6.4-2.8,9.3c6,6.8,7.9,7.4,14.6,7.4v2.1c-1.6-0.1-3.7-0.2-5.6-0.2c-3.4,0-5.7,0.1-7.9,0.2l-4.7-4.6
		c-2.3,2.4-7.5,5.5-15.9,5.5c-9.8,0-16.2-6-16.2-13c0-5.5,4-9.7,11.2-13.8c-3.7-3.5-7.2-6.8-7.2-12c0-7.8,6.8-12.9,13.7-12.9
		c5.9,0,12.3,3.6,12.3,10c0,5.4-4.2,8.5-12.4,13.2l16.2,16.2c1-2,1.6-5.5,1.6-8.3c0-4.3-2.4-4.8-6.5-4.8V323.7z M462.9,325.9
		c-5.1,3.1-6.5,6.6-6.5,10.4c0,5.3,5.2,12,14.1,12c4.4,0,8.8-2.3,10.4-4.4L462.9,325.9z M466,302.2c-3.7,0-7.9,3.3-7.4,8.1
		c0.3,3.6,7.2,10.2,8.1,11c4.6-3.1,8.1-5.4,8.1-10C474.8,307.6,472.2,302.2,466,302.2"/>
	<path class="st1" d="M164.2,412.1h1.8c4.1,0,4.9-0.9,4.9-6.6v-38.2h-8.7c-8.2,0-9.2,4.4-9.6,9.8h-2.6v-12.7
		c2.3,0.1,14.4,0.2,24.3,0.2c9.2,0,21.7-0.1,24.3-0.2v12.7h-2.6c-0.5-5.5-1.5-9.8-9.6-9.8h-8.7v38.2c0,5.8,0.8,6.6,4.9,6.6h1.8v2.1
		c-2.9-0.1-6.2-0.2-10-0.2c-3.8,0-7.1,0.1-10,0.2V412.1z"/>
	<path class="st1" d="M227.9,363.4c15.2,0,28.5,11.3,28.5,25.8c0,12.3-10.4,25.8-28.7,25.8c-16.5,0-28.4-11.4-28.4-25.3
		C199.3,374.2,212.9,363.4,227.9,363.4 M227.7,366.4c-10.7,0-20.8,6-20.8,22.2c0,11.4,8.1,23.8,21.2,23.8c14.1,0,20.6-9.5,20.6-22.4
		C248.8,378.8,241.1,366.4,227.7,366.4"/>
	<path class="st1" d="M276.1,366.4h-1.5c-2.9,0.1-4.7,1.1-4.7,6.9c-0.1,7.4-0.3,14.8-0.3,22.1c0,6,1.1,8.7,3.1,11.3
		c2.4,3.2,6.4,5.6,12.7,5.6c6.8,0,12.5-3.7,14.3-6c2.4-3.2,3.7-7.5,3.7-12.5v-7.4c0-9.4-0.9-16.9-1.5-18.2c-0.8-1.6-1.7-1.9-3.6-1.9
		h-1.6v-2.1c2.1,0.1,5.2,0.2,8,0.2c2.8,0,5.4-0.1,8.2-0.2v2.1h-1.2c-2.7,0-4.7,1-4.7,7.6V392c0,7.5-1.9,13.2-6,17.4
		c-3.2,3.2-9.8,5.7-16.1,5.7c-5.6,0-10-1.3-14.8-4.6c-5.2-3.5-7.3-9.3-7.3-16.6v-22c0-4.5-2.1-5.4-4.9-5.4h-1.4v-2.1
		c3.1,0.1,6.4,0.2,9.8,0.2c3.2,0,6.5-0.1,9.7-0.2V366.4z"/>
	<path class="st1" d="M317.3,412.1h1.4c3.5,0,5.1-1.2,5.1-5.7v-34.2c0-4.6-1.5-5.8-5.1-5.8h-1.4v-2.1c2.7,0.1,6.3,0.2,9.8,0.2
		c5.1,0,8.8-0.2,12.1-0.2c13.5,0,16,9.7,16,12.9c0,9.2-7,12-10.9,13.1l10.2,15.5c4.2,6.3,5.4,6.7,11.6,7.1v1.5
		c-1.5,0-2.8,0.1-4.3,0.1c-6.7,0-9.9-0.8-13.9-6.9l-8.9-13.4c-1.8-2.6-2.8-2.7-8.6-2.9v13.2c0,6.6,1.3,7.4,4.4,7.4h2.2v2.1
		c-3.3-0.1-6.6-0.2-9.9-0.2c-3.4,0-7.1,0.1-9.8,0.2V412.1z M330.5,388.3c1.3,0.4,3.2,0.5,5.2,0.5c6.9,0,12.5-2.9,12.5-10.1
		c0-3.1-2.3-11.6-12.9-11.6c-1.8,0-3.3,0.1-4.8,0.3V388.3z"/>
	<path class="st1" d="M368.1,412.1h1.4c3.5,0,5.1-1.2,5.1-5.7v-34.2c0-4.6-1.5-5.8-5.1-5.8h-1.4v-2.1c2.7,0.1,6.4,0.2,9.8,0.2
		c3.3,0,6.6-0.1,9.8-0.2v2.1h-1.4c-3.5,0-5,1.2-5,5.8v34.2c0,4.5,1.5,5.7,5,5.7h1.4v2.1c-3.2-0.1-6.4-0.2-9.8-0.2
		c-3.4,0-7.1,0.1-9.8,0.2V412.1z"/>
	<path class="st1" d="M425.1,377.1h-2.6c-0.1-2.3-0.7-11-12.2-11c-6.3,0-10.4,3.7-10.4,8.3c0,4.1,2.3,6.9,8.6,9.6l7,2.9
		c5.5,2.3,11.4,6.1,11.4,13.1c0,8.7-6.3,15.1-19,15.1c-1.2,0-7.9-0.1-13.7-1.7l-0.3-11.5h2.3c0.6,6.4,6.5,10.9,13,10.9
		c6.6,0,12.2-3.6,12.2-9.5c0-6.2-5.3-8.5-9.5-10.4l-8.3-3.6c-5.8-2.5-9.9-6.3-9.9-12c0-7.2,6.7-13.7,17-13.7c4.8,0,9.6,1,14.3,1.9
		V377.1z"/>
	<path class="st1" d="M432.5,412.1h1.4c3.7,0,5-1.7,5.3-10.3c0.2-9.7,0.8-19.5,0.8-29.6c0-4.7-1.5-5.8-5.6-5.8h-1.4v-2.1
		c2.4,0.1,4.2,0.2,6.6,0.2c2.3,0,5.2-0.1,6.1-0.2l21,41.1l18.6-41.1c2.4,0.1,4.8,0.2,7,0.2c2.3,0,4.7-0.1,7-0.2v2.1h-1
		c-3.5,0-5.9,0.8-5.9,5.8c0,3.6,0.3,21.1,0.5,31.7c0.1,7,0.9,8.2,5.3,8.2h1.5v2.1c-2.5-0.1-5.7-0.2-9.8-0.2c-4,0-7.3,0.1-9.9,0.2
		v-2.1h1.1c4.3,0,5.1-1.2,5.1-7.4v-35.3h-0.1l-20.5,45.4H464l-21-41.4h-0.2v28.7c0,7.6,0.7,9.9,4.9,9.9h1.1v2.1
		c-1.9-0.1-4.6-0.2-8.1-0.2c-3.4,0-5.9,0.1-8.2,0.2V412.1z"/>
	<path class="st1" d="M202.8,440.7h-1.2c-2-3.7-5.7-10.5-20.1-10.5c-15.5,0-20.5,13.1-20.5,23.4c0,16.7,12.9,22.4,20.9,22.4
		c12,0,17.5-6.2,21.1-10.4h0.5v5.3c-2.7,2.3-9.2,8-21,8c-17.3,0-29.1-10-29.1-24.1c0-13.5,10.3-27.6,28.4-27.6
		c7.6,0,14.8,2.2,17.5,2.9c1.4,0.4,2.9,0.9,3.8,1L202.8,440.7z"/>
	<path class="st1" d="M235.4,427.3c15.2,0,28.5,11.3,28.5,25.8c0,12.3-10.4,25.8-28.7,25.8c-16.5,0-28.4-11.4-28.4-25.3
		C206.7,438.1,220.4,427.3,235.4,427.3 M235.2,430.2c-10.7,0-20.8,6-20.8,22.2c0,11.4,8.1,23.8,21.2,23.8c14.1,0,20.6-9.5,20.6-22.4
		C256.3,442.6,248.5,430.2,235.2,430.2"/>
	<path class="st1" d="M283.5,430.3h-1.5c-2.9,0.1-4.7,1.1-4.7,6.9c-0.1,7.4-0.3,14.8-0.3,22.1c0,5.9,1.1,8.7,3.1,11.3
		c2.4,3.2,6.4,5.6,12.7,5.6c6.8,0,12.5-3.7,14.3-6c2.4-3.2,3.7-7.5,3.7-12.5v-7.4c0-9.4-0.9-16.9-1.5-18.2c-0.8-1.6-1.7-1.9-3.6-1.9
		h-1.6v-2.1c2.1,0.1,5.2,0.2,8,0.2c2.8,0,5.4-0.2,8.2-0.2v2.1h-1.1c-2.7,0-4.7,1-4.7,7.6v17.9c0,7.5-1.9,13.2-6,17.4
		c-3.2,3.2-9.8,5.7-16.1,5.7c-5.6,0-10-1.3-14.8-4.6c-5.2-3.5-7.3-9.3-7.3-16.6v-22c0-4.5-2.1-5.4-4.9-5.4h-1.4v-2.1
		c3.1,0.1,6.4,0.2,9.8,0.2c3.2,0,6.5-0.2,9.7-0.2V430.3z"/>
	<path class="st1" d="M323.2,475.9h1.2c4,0,4.7-1.5,5-8.9c0.3-9.2,0.4-22.5,0.4-30.7c0-5-1.7-6.1-5.5-6.1h-2.1v-2.1
		c2.1,0.1,4.4,0.2,6.7,0.2c2.1,0,4.1-0.2,6-0.2l36,40.5h0.1l-0.5-28.7c-0.2-8.1-1.3-9.7-5.4-9.7h-0.9v-2.1c2.4,0.1,5.4,0.2,8.3,0.2
		c2.7,0,5.5-0.2,8.2-0.2v2.1h-1.2c-2.4,0-4.6,0.8-4.8,7.6l-1.4,40.8h-2.3l-37.9-42.6h-0.2c0,10.9,0.2,21.6,0.5,32.5
		c0.2,5.7,1.4,7.4,5,7.4h1.5v2.1c-2.5-0.1-5.6-0.2-8.4-0.2c-2.9,0-6,0.1-8.4,0.2V475.9z"/>
	<path class="st1" d="M430.6,440.7h-1.2c-2-3.7-5.6-10.5-20.1-10.5c-15.5,0-20.5,13.1-20.5,23.4c0,16.7,12.9,22.4,20.8,22.4
		c12,0,17.5-6.2,21.1-10.4h0.5v5.3c-2.7,2.3-9.2,8-21,8c-17.3,0-29.1-10-29.1-24.1c0-13.5,10.3-27.6,28.4-27.6
		c7.6,0,14.8,2.2,17.5,2.9c1.5,0.4,2.9,0.9,3.8,1L430.6,440.7z"/>
	<path class="st1" d="M435.9,475.9h1.4c3.5,0,5-1.2,5-5.7V436c0-4.6-1.5-5.8-5-5.8h-1.4v-2.1c2.7,0.1,6.3,0.2,9.8,0.2
		c3.4,0,6.6-0.2,9.8-0.2v2.1h-1.4c-3.5,0-5,1.2-5,5.8v34.1c0,4.5,1.5,5.7,5,5.7h1.4v2.1c-3.2-0.1-6.4-0.2-9.8-0.2
		c-3.4,0-7.1,0.1-9.8,0.2V475.9z"/>
	<path class="st1" d="M461.9,475.9h1.4c3.5,0,5-1.2,5-5.7V436c0-4.6-1.5-5.8-5-5.8h-1.4v-2.1c2.7,0.1,6.3,0.2,9.8,0.2
		c3.4,0,6.6-0.2,10.2-0.2v2.1h-1.8c-3.5,0-5.1,1.2-5.1,5.8v32.5c0,5.3,1.2,7.1,10.6,7.1c12.5,0,14-2,15.4-10h2.4l-0.5,12.4
		c-6.7-0.1-15.4-0.2-22.1-0.2c-8.9,0-16.3,0.1-19,0.2V475.9z"/>
	<path class="st1" d="M499.6,208.2c1.5-4.1,2.3-8.5,2.3-12.9c0-5.2-1-10.1-2.9-14.6c-2.8-6.7-7.6-12.4-13.6-16.5
		c-6-4-13.2-6.4-21-6.4c-4.9,0-9.5,0.9-13.8,2.6c-0.7,0.3-1.4,0.6-2,0.9v11.7c1.8-1.3,3.7-2.3,5.8-3.1c3.1-1.2,6.5-1.9,10-1.9
		c3.8,0,7.4,0.8,10.6,2.1c4.9,2.1,9.1,5.5,12,9.9c2.9,4.4,4.7,9.6,4.7,15.3c0,3-0.6,6.4-1.7,9.5c-1.1,3.1-2.5,5.6-4.3,8.2l-0.2,0.3
		l-36.8,54.8v18.2l45.1-67.2C496.1,215.8,498.1,212.2,499.6,208.2"/>
	<path class="st2" d="M486.1,195.3c0,12-9.7,21.7-21.7,21.7c-12,0-21.7-9.7-21.7-21.7c0-12,9.7-21.7,21.7-21.7
		C476.4,173.6,486.1,183.4,486.1,195.3"/>
</g>
</svg>
